# xmcd
#
# Track frame offsets:
#	150
#	12987
#	23862
#	35642
#	48622
#	63416
#	77652
#	92962
#	104559
#	116084
#	126547
#	144433
#	155639
#	164695
#	176229
#	191889
#	206078
#	221225
#	234157
#
# Disc length: 3427 seconds
#
# Revision: 0
# Processed by: cddbd v1.5.1PL2 Copyright (c) Steve Scherf et al.
# Submitted via: dBpowerAMP V4.0
#
DISCID=270d6113
DTITLE=B. B. King - Hits and Roots 1950/1962 
DYEAR=2006
DGENRE=Blues
TTITLE0=Mistreated Woman
TTITLE1=That's Ain't The Way To Do It
TTITLE2=Shake It Up And Go
TTITLE3=Some Day, Somewhere
TTITLE4=Please Help Me
TTITLE5=Baby, Look At You
TTITLE6=Precious Lord
TTITLE7=Mean Old Frisco
TTITLE8=Fishin' After Me
TTITLE9=Bad Luck Soul
TTITLE10=Hold That Train
TTITLE11=Mashed Potato Twist
TTITLE12=Beautician Blues
TTITLE13=It's A Mean World
TTITLE14=Five Long Years
TTITLE15=Blues Stay Away From Me
TTITLE16=Dust My Broom
TTITLE17=Goin' Down Slow
TTITLE18=Every Day I Have The Blues
EXTD=
EXTT0=
EXTT1=
EXTT2=
EXTT3=
EXTT4=
EXTT5=
EXTT6=
EXTT7=
EXTT8=
EXTT9=
EXTT10=
EXTT11=
EXTT12=
EXTT13=
EXTT14=
EXTT15=
EXTT16=
EXTT17=
EXTT18=
PLAYORDER=
